<svg width="50" height="19" version="1.1" viewBox="0 0 19 50" xmlns="http://www.w3.org/2000/svg"><g transform="matrix(.23 0 0 .23 -153 -147)"><g transform="matrix(1.3 0 0 1.3 -200 -209)" fill="#fff"><path d="m576 765c0 34-17 46-50 46-14 0-25-2.9-32-5.3l1.4-23c8.8 4.3 16 6.9 28 6.9 17 0 26-7.9 26-24v-4.5h-.32c-6.9 9.8-17 14-28 14-23 0-37-17-37-42 0-25 12-44 38-44 12 0 22 6.8 28 17h.32v-15h26v74m-46-12c10 0 18-8.7 18-22 0-9.3-5.5-20-18-20-11 0-16 9.5-16 21 0 13 7.7 20 16 20z"/><path d="m662 686h28l22 62 22-62h28l-35 89h-31l-34-89"/><path d="m576 732c0-28 21-44 49-44s49 16 49 44c0 28-21 44-49 44-28 0-49-16-49-44m68 0c0-13-5.5-24-19-24s-19 11-19 24c0 12 5.5 24 19 24s19-11 19-24z"/><path d="m760 762c0 7.6-6.2 14-14 14-7.6 0-14-6.2-14-14 0-7.6 6.2-14 14-14 7.6 0 14 6.2 14 14z"/><path d="m762 654h29v48h.32c7.4-9.3 17-13 29-13 23 0 36 22 36 42 0 25-13 45-38 45-13 0-25-7.6-29-17h-.32v15h-27v-121m47 57c-11 0-18 9.3-18 22 0 12 8 21 18 21 11 0 18-9.2 18-22 0-11-6.3-21-18-21z"/><path d="m916 714c-3.2-.97-6.4-.97-9.8-.97-14 0-21 9.8-21 26v35h-29v-84h26v15h.32c5-11 12-17 25-17 3.4 0 6.9.48 9.8.96l-1.4 24z"/></g></g></svg>