<svg width="32" height="33" viewBox="0 0 32 33" fill="none" xmlns="http://www.w3.org/2000/svg">
<path d="M18.1221 22.3554C18.5872 22.3554 18.9642 21.9784 18.9642 21.5133C18.9642 21.0482 18.5872 20.6712 18.1221 20.6712C17.6571 20.6712 17.28 21.0482 17.28 21.5133C17.28 21.9784 17.6571 22.3554 18.1221 22.3554Z" fill="#2F9E40"/>
<path d="M13.8779 22.3554C14.343 22.3554 14.72 21.9784 14.72 21.5133C14.72 21.0482 14.343 20.6712 13.8779 20.6712C13.4128 20.6712 13.0358 21.0482 13.0358 21.5133C13.0358 21.9784 13.4128 22.3554 13.8779 22.3554Z" fill="#2F9E40"/>
<path d="M31.5116 10.3977L16.4547 0.982944C16.1853 0.814523 15.8316 0.814523 15.5621 0.982944L0.488421 10.3977C0.202105 10.5324 0 10.8187 0 11.1724V15.1808C0 15.6524 0.370526 16.0229 0.842105 16.0229H3.36842V28.6545C3.36842 30.9787 5.25474 32.8651 7.57895 32.8651H24.4211C26.7453 32.8651 28.6316 30.9787 28.6316 28.6545V16.0229H31.1579C31.6295 16.0229 32 15.6524 32 15.1808V11.1724C32 10.8356 31.7979 10.5324 31.5116 10.3977ZM22.4168 22.3387C22.4168 24.6629 20.5305 26.5493 18.2063 26.5493H13.7937C11.4695 26.5493 9.58316 24.6629 9.58316 22.3387V13.8503C9.58316 13.3787 9.95368 13.0082 10.4253 13.0082C10.8968 13.0082 11.2674 13.3787 11.2674 13.8503V17.3872C11.9747 16.8482 12.8505 16.5282 13.7937 16.5282H18.2063C19.1495 16.5282 20.0253 16.865 20.7326 17.3872V13.8503C20.7326 13.3787 21.1032 13.0082 21.5747 13.0082C22.0463 13.0082 22.4168 13.3787 22.4168 13.8503V22.3387Z" fill="#2F9E40"/>
</svg>
