<svg width="104" height="103" viewBox="0 0 104 103" fill="none" xmlns="http://www.w3.org/2000/svg">
<rect x="0.895752" y="0.0629883" width="102.873" height="102.873" rx="16" fill="#F9FAFB"/>
<path d="M60.9225 34.4741C57.5772 31.8346 53.2494 30.8832 49.0139 31.8961C44.1031 33.0317 40.1439 36.9295 38.9468 41.8097C37.7498 46.7204 39.1309 51.6926 42.6604 55.1608C43.9189 56.4193 44.6556 58.3938 44.6556 60.4196V60.7572C44.6556 61.6165 45.3307 62.2918 46.1902 62.2918H58.4671C59.3266 62.2918 60.0018 61.6165 60.0018 60.7572V60.4196C60.0018 58.4244 60.7691 56.3885 62.1195 55.0687C64.6978 52.4599 66.1402 48.9917 66.1402 45.3087C66.1402 41.0731 64.2373 37.1137 60.9225 34.4741ZM52.3287 40.7048C50.0134 40.7048 48.328 42.2405 47.8866 44.0184C47.6858 44.8269 46.8723 45.3429 46.0268 45.1393C45.2056 44.9355 44.7034 44.1022 44.9073 43.281C45.6677 40.2118 48.5505 37.6356 52.3287 37.6356C53.1769 37.6356 53.8633 38.3219 53.8633 39.1702C53.8633 40.0184 53.1769 40.7048 52.3287 40.7048Z" fill="#2F9E40"/>
<path d="M46.1902 65.361V66.8957C46.1902 69.4343 48.2554 71.4995 50.794 71.4995H53.8633C56.4019 71.4995 58.4671 69.4343 58.4671 66.8957V65.361H46.1902Z" fill="#2F9E40"/>
</svg>
