<svg width="25" height="25" viewBox="0 0 25 25" fill="none" xmlns="http://www.w3.org/2000/svg">
<path d="M12.7871 14.1704C14.444 14.1704 15.7871 12.8273 15.7871 11.1704C15.7871 9.51356 14.444 8.17041 12.7871 8.17041C11.1303 8.17041 9.78711 9.51356 9.78711 11.1704C9.78711 12.8273 11.1303 14.1704 12.7871 14.1704Z" stroke="white" stroke-width="2" stroke-linecap="round" stroke-linejoin="round"/>
<path d="M18.4441 16.8276L14.2011 21.0706C13.8261 21.4452 13.3177 21.6557 12.7876 21.6557C12.2575 21.6557 11.7491 21.4452 11.3741 21.0706L7.13011 16.8276C6.01133 15.7088 5.24945 14.2833 4.9408 12.7315C4.63215 11.1796 4.7906 9.57112 5.39612 8.10934C6.00163 6.64755 7.02701 5.39815 8.34259 4.51911C9.65818 3.64008 11.2049 3.1709 12.7871 3.1709C14.3693 3.1709 15.916 3.64008 17.2316 4.51911C18.5472 5.39815 19.5726 6.64755 20.1781 8.10934C20.7836 9.57112 20.9421 11.1796 20.6334 12.7315C20.3248 14.2833 19.5629 15.7088 18.4441 16.8276V16.8276Z" stroke="white" stroke-width="2" stroke-linecap="round" stroke-linejoin="round"/>
</svg>
