<svg width="32" height="28" viewBox="0 0 32 28" fill="none" xmlns="http://www.w3.org/2000/svg">
<path d="M23.273 23.3153H20.3639V22.588H11.6366V23.3153H8.72755C7.76313 23.3153 6.8382 23.6984 6.15625 24.3803C5.4743 25.0623 5.09119 25.9872 5.09119 26.9516C5.09119 27.1445 5.16781 27.3295 5.3042 27.4659C5.44059 27.6023 5.62557 27.6789 5.81846 27.6789H26.1821C26.375 27.6789 26.56 27.6023 26.6964 27.4659C26.8327 27.3295 26.9094 27.1445 26.9094 26.9516C26.9094 25.9872 26.5263 25.0623 25.8443 24.3803C25.1624 23.6984 24.2374 23.3153 23.273 23.3153Z" fill="#2F9E40"/>
<path d="M29.8182 0.0426636H2.18182C1.60316 0.0426636 1.04821 0.272533 0.63904 0.681703C0.22987 1.09087 0 1.64583 0 2.22448V18.9518C0 19.5304 0.22987 20.0854 0.63904 20.4945C1.04821 20.9037 1.60316 21.1336 2.18182 21.1336H29.8182C30.3968 21.1336 30.9518 20.9037 31.361 20.4945C31.7701 20.0854 32 19.5304 32 18.9518V2.22448C32 1.64583 31.7701 1.09087 31.361 0.681703C30.9518 0.272533 30.3968 0.0426636 29.8182 0.0426636ZM27.0836 13.1336L24.5964 13.7518L24 16.2172C23.9631 16.3679 23.8789 16.5028 23.7598 16.6022C23.6408 16.7017 23.493 16.7604 23.3382 16.7699H23.2727C23.1241 16.7704 22.979 16.7254 22.8567 16.6409C22.7345 16.5563 22.6411 16.4364 22.5891 16.2972L20.4073 10.479C20.3575 10.348 20.3466 10.2053 20.376 10.0683C20.4054 9.93121 20.4737 9.80555 20.5729 9.70643C20.672 9.60731 20.7976 9.53894 20.9347 9.50956C21.0718 9.48019 21.2144 9.49105 21.3455 9.54084L27.1636 11.7227C27.3195 11.7701 27.4549 11.8686 27.5481 12.0022C27.6414 12.1358 27.687 12.2969 27.6778 12.4595C27.6686 12.6222 27.605 12.7771 27.4973 12.8993C27.3895 13.0215 27.2439 13.104 27.0836 13.1336Z" fill="#2F9E40"/>
</svg>
