<svg width="104" height="104" viewBox="0 0 104 104" fill="none" xmlns="http://www.w3.org/2000/svg">
<rect x="0.895752" y="0.299072" width="102.873" height="102.873" rx="16" fill="#F7F7F7"/>
<path d="M59.4399 56.0343C59.4399 58.0144 61.0467 59.6212 63.0267 59.6212C63.7163 59.6212 64.3868 59.4314 64.9625 59.0645C65.6141 58.647 66.3543 58.647 66.9742 58.9823C67.6258 59.3429 68.0307 60.0261 68.0307 60.7663V68.4588C68.0307 70.268 66.5567 71.7357 64.7474 71.7357H57.0612C56.3211 71.7357 55.6379 71.3309 55.2836 70.6793C54.942 70.0593 54.961 69.3445 55.3152 68.7498C55.5113 68.307 56.1882 67.4024 55.834 65.8715C55.6885 65.22 55.3469 64.6379 54.8788 64.1698C54.4106 63.7143 53.816 63.3727 53.1644 63.2335C50.849 62.7211 48.7298 64.4418 48.7298 66.7192C48.7298 67.9149 49.2865 68.598 49.3498 68.7498C49.7041 69.3445 49.7231 70.0593 49.3814 70.6793C49.0272 71.3309 48.344 71.7357 47.6038 71.7357H39.9113C38.1021 71.7357 36.6344 70.2681 36.6344 68.4588V60.7662C36.6344 60.026 37.0392 59.3428 37.6908 58.9823C38.355 58.628 39.1142 58.6723 39.7088 59.0645C40.2718 59.4313 40.936 59.6211 41.6382 59.6211C43.6183 59.6211 45.2251 58.0143 45.2251 56.0342C45.2251 54.0542 43.6183 52.4411 41.6382 52.4411C40.4869 52.4411 39.8479 52.9471 39.6392 53.0484C39.0319 53.409 38.298 53.4215 37.6718 53.08C37.0328 52.7194 36.6343 52.0425 36.6343 51.3023V43.6225C36.6343 41.807 38.1019 40.3329 39.9112 40.3329H47.6037C47.8821 40.3329 48.1351 40.1874 48.2679 39.9344C48.3312 39.8268 48.4514 39.5359 48.2489 39.2258C47.7555 38.4793 47.4645 37.543 47.4645 36.5815C47.4645 33.8803 49.6723 31.7357 52.3229 31.7357C52.5506 31.7357 52.7784 31.7546 53.0125 31.7863H53.0188C55.3341 32.1026 57.1307 34.1016 57.194 36.4297C57.2319 37.4355 56.9473 38.4034 56.4158 39.2258C56.2134 39.5358 56.3336 39.8267 56.3968 39.9344C56.5297 40.1874 56.7827 40.3329 57.0611 40.3329H64.7472C66.5565 40.3329 68.0305 41.8069 68.0305 43.6225V51.3023C68.0305 52.0425 67.632 52.7194 66.9867 53.08C66.354 53.4279 65.6012 53.4215 64.956 53.0041C64.3866 52.6372 63.7224 52.4411 63.0265 52.4411C61.0467 52.4411 59.4399 54.0543 59.4399 56.0343Z" fill="#2F9E40"/>
</svg>
