<svg width="32" height="26" viewBox="0 0 32 26" fill="none" xmlns="http://www.w3.org/2000/svg">
<path d="M24.636 0.00732422H7.49791C6.0251 0.00732422 4.68619 0.67678 3.74895 1.74791C1.33891 4.82741 0 8.71025 0 12.8609C0 16.8776 1.33891 20.8944 3.74895 23.9739C4.68619 25.045 6.0251 25.7144 7.49791 25.7144H24.636C26.1088 25.7144 27.4477 25.045 28.251 23.9739C30.6611 20.8944 32 17.0115 32 12.8609C32 8.84415 30.6611 4.82741 28.251 1.74791C27.4477 0.67678 26.1088 0.00732422 24.636 0.00732422ZM11.5146 10.8525C11.5146 12.0575 10.5774 12.9948 9.37239 12.9948C8.16736 12.9948 7.36402 11.9236 7.36402 10.8525V6.83578C7.36402 5.63076 8.30126 4.69352 9.50628 4.69352C10.7113 4.69352 11.5146 5.76465 11.5146 6.83578V10.8525ZM18.8787 20.8944H13.2552C12.318 20.8944 11.6485 19.8232 12.318 19.0199L15.1297 15.2709C15.5314 14.6015 16.6025 14.6015 17.0042 15.2709L19.8159 19.0199C20.3515 19.8232 19.8159 20.8944 18.8787 20.8944ZM24.7699 10.8525C24.7699 12.0575 23.8326 12.9948 22.6276 12.9948C21.4226 12.9948 20.4854 12.0575 20.4854 10.8525V6.83578C20.4854 5.63076 21.4226 4.69352 22.6276 4.69352C23.8326 4.82741 24.7699 5.76465 24.7699 6.83578V10.8525Z" fill="#2F9E40"/>
</svg>
