<svg width="32" height="33" viewBox="0 0 32 33" fill="none" xmlns="http://www.w3.org/2000/svg">
<path d="M31.8316 1.31232C31.803 1.18375 31.703 1.08375 31.5816 1.04804C27.3958 0.0266056 17.7315 3.66947 12.4958 8.90519C11.5601 9.83377 10.7101 10.8409 9.95295 11.9123C8.33866 11.7695 6.72437 11.8909 5.34579 12.4909C1.46007 14.1981 0.331499 18.6624 0.0100703 20.5766C-0.0542156 20.9481 0.195785 21.3052 0.574358 21.3695C0.638643 21.3766 0.702929 21.3838 0.767215 21.3766L7.00294 20.6909C7.01008 21.1624 7.03865 21.6338 7.08865 22.0981C7.11723 22.4195 7.26723 22.7266 7.4958 22.9552L9.91009 25.3624C10.1387 25.5909 10.4458 25.7409 10.7672 25.7695C11.2315 25.8195 11.6958 25.8481 12.1672 25.8552L11.4815 32.0838C11.4387 32.4624 11.7172 32.8052 12.0958 32.841C12.1601 32.8481 12.2244 32.8481 12.2815 32.8338C14.1958 32.5267 18.6672 31.3981 20.3673 27.5124C20.9673 26.1338 21.0887 24.5266 20.953 22.9195C22.0315 22.1624 23.0387 21.3052 23.9673 20.3766C29.2173 15.1552 32.8387 5.70519 31.8316 1.31232ZM23.5673 14.1409C22.2315 15.4766 20.0601 15.4838 18.7244 14.1409C17.3815 12.8052 17.3815 10.6338 18.7244 9.29091C20.0601 7.94805 22.2315 7.94805 23.5744 9.29091C24.9101 10.6338 24.9101 12.8052 23.5673 14.1409Z" fill="white"/>
<path d="M8.74581 28.1052C8.35295 28.4981 7.72438 28.6481 6.96723 28.7838C5.26723 29.0695 3.76723 27.6052 4.07437 25.8909C4.18865 25.2409 4.53865 24.3266 4.75294 24.1124C4.87437 23.9909 4.88151 23.7909 4.76008 23.6695C4.68865 23.5981 4.5958 23.5624 4.4958 23.5766C3.5458 23.6909 2.66008 24.1266 1.98865 24.7981C0.302933 26.4838 0.14579 32.7195 0.14579 32.7195C0.14579 32.7195 6.38866 32.5624 8.06723 30.8767C8.74581 30.1981 9.17438 29.3195 9.28867 28.3624C9.31724 28.0695 8.95295 27.8909 8.74581 28.1052Z" fill="white"/>
</svg>
