<svg width="96" height="33" viewBox="0 0 96 33" fill="none" xmlns="http://www.w3.org/2000/svg">
<g clip-path="url(#clip0_1_1917)">
<path d="M41.1841 17.271C41.1841 21.7127 37.695 24.9858 33.413 24.9858C29.131 24.9858 25.6418 21.7127 25.6418 17.271C25.6418 12.798 29.131 9.55621 33.413 9.55621C37.695 9.55621 41.1841 12.798 41.1841 17.271ZM37.7823 17.271C37.7823 14.4953 35.76 12.5962 33.413 12.5962C31.0659 12.5962 29.0437 14.4953 29.0437 17.271C29.0437 20.0188 31.0659 21.9458 33.413 21.9458C35.76 21.9458 37.7823 20.0153 37.7823 17.271Z" fill="#EA4335"/>
<path d="M57.9488 17.271C57.9488 21.7127 54.4596 24.9858 50.1776 24.9858C45.8956 24.9858 42.4065 21.7127 42.4065 17.271C42.4065 12.8014 45.8956 9.55621 50.1776 9.55621C54.4596 9.55621 57.9488 12.798 57.9488 17.271ZM54.5469 17.271C54.5469 14.4953 52.5247 12.5962 50.1776 12.5962C47.8306 12.5962 45.8083 14.4953 45.8083 17.271C45.8083 20.0188 47.8306 21.9458 50.1776 21.9458C52.5247 21.9458 54.5469 20.0153 54.5469 17.271Z" fill="#FBBC05"/>
<path d="M74.0151 10.0223V23.8727C74.0151 29.5701 70.6412 31.8971 66.6525 31.8971C62.898 31.8971 60.6382 29.3962 59.786 27.351L62.7478 26.1232C63.2752 27.3788 64.5674 28.8606 66.6491 28.8606C69.2022 28.8606 70.7844 27.2919 70.7844 24.3388V23.2293H70.6656C69.9042 24.1649 68.4373 24.9823 66.5862 24.9823C62.7128 24.9823 59.1643 21.6223 59.1643 17.2988C59.1643 12.944 62.7128 9.55621 66.5862 9.55621C68.4338 9.55621 69.9007 10.3736 70.6656 11.2814H70.7844V10.0258H74.0151V10.0223ZM71.0253 17.2988C71.0253 14.5823 69.2057 12.5962 66.8901 12.5962C64.543 12.5962 62.5766 14.5823 62.5766 17.2988C62.5766 19.9875 64.543 21.9458 66.8901 21.9458C69.2057 21.9458 71.0253 19.9875 71.0253 17.2988Z" fill="#4285F4"/>
<path d="M79.3414 1.90399V24.5127H76.0234V1.90399H79.3414Z" fill="#34A853"/>
<path d="M92.2713 19.8101L94.9117 21.5632C94.0595 22.8188 92.0059 24.9823 88.4573 24.9823C84.0566 24.9823 80.77 21.5945 80.77 17.2675C80.77 12.6797 84.0845 9.55273 88.0766 9.55273C92.0967 9.55273 94.063 12.7388 94.7057 14.4606L95.0584 15.3371L84.7027 19.6084C85.4956 21.1562 86.7285 21.9458 88.4573 21.9458C90.1897 21.9458 91.3912 21.0971 92.2713 19.8101ZM84.1439 17.0345L91.0663 14.1719C90.6856 13.2084 89.5401 12.5371 88.1919 12.5371C86.463 12.5371 84.0566 14.0571 84.1439 17.0345Z" fill="#EA4335"/>
<path d="M13.0824 15.264V11.9909H24.1576C24.2658 12.5614 24.3217 13.2362 24.3217 13.9666C24.3217 16.4222 23.6476 19.4588 21.4752 21.6222C19.3622 23.8136 16.6623 24.9822 13.0859 24.9822C6.45683 24.9822 0.882568 19.6049 0.882568 13.0031C0.882568 6.40138 6.45683 1.02399 13.0859 1.02399C16.7532 1.02399 19.3657 2.45703 21.3285 4.32486L19.0094 6.63442C17.6019 5.31964 15.6949 4.29703 13.0824 4.29703C8.24158 4.29703 4.45555 8.18225 4.45555 13.0031C4.45555 17.824 8.24158 21.7092 13.0824 21.7092C16.2223 21.7092 18.0105 20.4536 19.1561 19.3127C20.0851 18.3875 20.6964 17.0657 20.9373 15.2605L13.0824 15.264Z" fill="#4285F4"/>
</g>
<defs>
<clipPath id="clip0_1_1917">
<rect width="95" height="32" fill="white" transform="translate(0.756836 0.860535)"/>
</clipPath>
</defs>
</svg>
