<svg width="40" height="39" viewBox="0 0 40 39" fill="none" xmlns="http://www.w3.org/2000/svg">
<path opacity="0.1" fill-rule="evenodd" clip-rule="evenodd" d="M0.82959 19.7779C0.82959 9.19332 9.41012 0.612793 19.9947 0.612793C30.5793 0.612793 39.1599 9.19332 39.1599 19.7779C39.1599 30.3626 30.5793 38.9431 19.9947 38.9431C9.41012 38.9431 0.82959 30.3626 0.82959 19.7779Z" fill="black"/>
<path fill-rule="evenodd" clip-rule="evenodd" d="M19.9956 9.55664C17.2196 9.55664 16.8712 9.56878 15.7809 9.6184C14.6927 9.66823 13.95 9.8405 13.3 10.0933C12.6278 10.3543 12.0575 10.7036 11.4893 11.2719C10.9208 11.8401 10.5715 12.4104 10.3096 13.0824C10.0562 13.7326 9.88371 14.4755 9.83474 15.5633C9.78597 16.6536 9.77319 17.0022 9.77319 19.7782C9.77319 22.5541 9.78554 22.9015 9.83495 23.9918C9.88499 25.0799 10.0573 25.8227 10.3098 26.4726C10.5711 27.1449 10.9203 27.7152 11.4887 28.2833C12.0566 28.8519 12.6269 29.202 13.2988 29.463C13.9491 29.7158 14.6921 29.8881 15.78 29.9379C16.8703 29.9875 17.2185 29.9997 19.9943 29.9997C22.7705 29.9997 23.1178 29.9875 24.2081 29.9379C25.2963 29.8881 26.0399 29.7158 26.6902 29.463C27.3623 29.202 27.9317 28.8519 28.4996 28.2833C29.0682 27.7152 29.4175 27.1449 29.6794 26.4728C29.9307 25.8227 30.1032 25.0797 30.1543 23.992C30.2032 22.9017 30.216 22.5541 30.216 19.7782C30.216 17.0022 30.2032 16.6538 30.1543 15.5635C30.1032 14.4753 29.9307 13.7326 29.6794 13.0826C29.4175 12.4104 29.0682 11.8401 28.4996 11.2719C27.9311 10.7034 27.3625 10.3541 26.6896 10.0933C26.038 9.8405 25.2948 9.66823 24.2066 9.6184C23.1163 9.56878 22.7692 9.55664 19.9924 9.55664H19.9956ZM19.0786 11.3986C19.3507 11.3982 19.6544 11.3986 19.9955 11.3986C22.7247 11.3986 23.0481 11.4084 24.1259 11.4574C25.1225 11.503 25.6633 11.6695 26.0237 11.8094C26.5007 11.9947 26.8407 12.2161 27.1983 12.5739C27.556 12.9316 27.7775 13.2723 27.9632 13.7494C28.1031 14.1092 28.2698 14.6501 28.3152 15.6467C28.3642 16.7242 28.3748 17.0479 28.3748 19.7758C28.3748 22.5037 28.3642 22.8273 28.3152 23.9049C28.2696 24.9014 28.1031 25.4423 27.9632 25.8022C27.7779 26.2792 27.556 26.6189 27.1983 26.9764C26.8405 27.3342 26.5009 27.5556 26.0237 27.7409C25.6638 27.8814 25.1225 28.0475 24.1259 28.0931C23.0483 28.1421 22.7247 28.1527 19.9955 28.1527C17.2662 28.1527 16.9427 28.1421 15.8652 28.0931C14.8686 28.0471 14.3277 27.8806 13.9672 27.7407C13.4902 27.5554 13.1494 27.334 12.7917 26.9762C12.4339 26.6185 12.2125 26.2786 12.0268 25.8014C11.8869 25.4415 11.7201 24.9006 11.6748 23.904C11.6258 22.8265 11.616 22.5028 11.616 19.7732C11.616 17.0437 11.6258 16.7217 11.6748 15.6442C11.7203 14.6476 11.8869 14.1067 12.0268 13.7464C12.212 13.2694 12.4339 12.9286 12.7917 12.5709C13.1494 12.2131 13.4902 11.9917 13.9672 11.806C14.3275 11.6654 14.8686 11.4993 15.8652 11.4536C16.8081 11.411 17.1735 11.3982 19.0786 11.3961V11.3986ZM25.4517 13.0958C24.7745 13.0958 24.2251 13.6446 24.2251 14.322C24.2251 14.9991 24.7745 15.5486 25.4517 15.5486C26.1289 15.5486 26.6783 14.9991 26.6783 14.322C26.6783 13.6448 26.1289 13.0958 25.4517 13.0958ZM19.9956 14.529C17.0967 14.529 14.7464 16.8793 14.7464 19.7781C14.7464 22.677 17.0967 25.0262 19.9956 25.0262C22.8944 25.0262 25.2439 22.677 25.2439 19.7781C25.2439 16.8793 22.8944 14.529 19.9956 14.529ZM19.9955 16.371C21.8771 16.371 23.4027 17.8963 23.4027 19.7781C23.4027 21.6597 21.8771 23.1853 19.9955 23.1853C18.1137 23.1853 16.5884 21.6597 16.5884 19.7781C16.5884 17.8963 18.1137 16.371 19.9955 16.371Z" fill="white"/>
</svg>
