<svg width="21" height="21" viewBox="0 0 21 21" fill="none" xmlns="http://www.w3.org/2000/svg">
<path d="M5.96534 3.86312C5.9403 2.72653 5.12752 1.86084 3.80769 1.86084C2.48786 1.86084 1.625 2.72653 1.625 3.86312C1.625 4.97616 2.46236 5.86678 3.75761 5.86678H3.78226C5.12752 5.86678 5.96534 4.97616 5.96534 3.86312Z" fill="#B2B3B6"/>
<path d="M5.71123 7.44902H1.85313V19.041H5.71123V7.44902Z" fill="#B2B3B6"/>
<path d="M15.1829 7.17685C17.7217 7.17685 19.625 8.83398 19.625 12.3945L19.6249 19.041H15.7669V12.8393C15.7669 11.2816 15.2086 10.2186 13.812 10.2186C12.7461 10.2186 12.1112 10.9352 11.8324 11.6273C11.7304 11.8754 11.7053 12.221 11.7053 12.5674V19.0413H7.84678C7.84678 19.0413 7.89763 8.53709 7.84678 7.44936H11.7053V9.09126C12.2174 8.30197 13.1345 7.17685 15.1829 7.17685Z" fill="#B2B3B6"/>
</svg>
