<svg width="104" height="104" viewBox="0 0 104 104" fill="none" xmlns="http://www.w3.org/2000/svg">
<rect x="0.895752" y="0.535156" width="102.873" height="102.873" rx="16" fill="#F7F7F7"/>
<path d="M52.3326 71.9717C49.7054 71.9805 47.1025 71.468 44.6746 70.4639C42.2468 69.4597 40.0423 67.9839 38.1889 66.1219C37.5581 65.4872 36.9693 64.8121 36.4264 64.1009C36.1548 63.7412 36.0373 63.2884 36.0996 62.842C36.1619 62.3957 36.399 61.9924 36.7586 61.7208C37.1183 61.4492 37.5711 61.3317 38.0175 61.394C38.4638 61.4563 38.8671 61.6934 39.1387 62.053C39.5866 62.6385 40.0717 63.1946 40.5909 63.7178C42.9663 66.0939 46.0067 67.6935 49.3104 68.3051C52.6141 68.9168 56.0256 68.5117 59.0942 67.1435C62.1628 65.7753 64.7441 63.5083 66.4971 60.6421C68.2501 57.7758 69.0922 54.4451 68.9123 51.0901C68.8999 50.8672 68.9316 50.6441 69.0055 50.4335C69.0795 50.2228 69.1942 50.0288 69.3432 49.8626C69.4922 49.6964 69.6725 49.5611 69.8738 49.4646C70.0751 49.3681 70.2935 49.3123 70.5164 49.3002C70.5678 49.2939 70.6196 49.2909 70.6715 49.2913C71.0967 49.3053 71.5011 49.4791 71.8039 49.7779C72.1068 50.0768 72.2859 50.4787 72.3056 50.9037C72.4525 53.6168 72.0447 56.3313 71.1072 58.8815C70.1696 61.4316 68.7219 63.7638 66.8526 65.7356C64.9833 67.7074 62.7316 69.2773 60.2351 70.3496C57.7386 71.4218 55.0496 71.9737 52.3326 71.9717Z" fill="#2F9E40" stroke="#2F9E40"/>
<path d="M34.0548 54.6572C33.6205 54.6569 33.2028 54.4903 32.8875 54.1916C32.5722 53.8929 32.3832 53.4848 32.3595 53.0511C32.1411 49.009 33.1544 44.9957 35.2655 41.5417C37.3767 38.0877 40.4862 35.3556 44.1832 33.7066C47.8801 32.0575 51.9904 31.5691 55.9709 32.3059C59.9514 33.0427 63.6145 34.97 66.4763 37.8331C66.8165 38.1727 67.1166 38.5008 67.4153 38.8429C67.563 39.0106 67.6761 39.2058 67.7482 39.4173C67.8204 39.6287 67.8501 39.8524 67.8356 40.0753C67.8212 40.2983 67.7629 40.5162 67.6642 40.7167C67.5654 40.9171 67.4281 41.096 67.26 41.2433C67.092 41.3906 66.8965 41.5032 66.6849 41.5748C66.4732 41.6465 66.2495 41.6756 66.0266 41.6607C65.8037 41.6457 65.5859 41.5869 65.3857 41.4876C65.1855 41.3884 65.0069 41.2506 64.86 41.0822C64.6104 40.7988 64.3615 40.5256 64.0876 40.2511C61.7139 37.871 58.6736 36.2675 55.3689 35.6526C52.0642 35.0377 48.6506 35.4405 45.5797 36.8075C42.5088 38.1746 39.9252 40.4416 38.1705 43.3087C36.4159 46.1759 35.5728 49.5081 35.7529 52.8648C35.7653 53.0877 35.7336 53.3108 35.6596 53.5214C35.5857 53.7321 35.4709 53.9261 35.3219 54.0923C35.1729 54.2586 34.9926 54.3938 34.7913 54.4903C34.59 54.5868 34.3716 54.6426 34.1487 54.6547L34.0548 54.6572Z" fill="#2F9E40" stroke="#2F9E40"/>
<path d="M61.4315 42.6612C61.208 42.6618 60.9865 42.6183 60.7798 42.5332C60.5731 42.4481 60.3852 42.323 60.2269 42.1651C60.0686 42.0073 59.943 41.8198 59.8573 41.6133C59.7716 41.4068 59.7275 41.1855 59.7275 40.9619C59.7275 40.7384 59.7716 40.517 59.8573 40.3105C59.943 40.1041 60.0686 39.9165 60.2269 39.7587C60.3852 39.6008 60.5731 39.4758 60.7798 39.3906C60.9865 39.3055 61.208 39.262 61.4315 39.2626H65.2788V35.416C65.2801 34.9661 65.4596 34.5351 65.7782 34.2175C66.0967 33.8998 66.5282 33.7214 66.9781 33.7214C67.4279 33.7214 67.8594 33.8998 68.178 34.2175C68.4965 34.5351 68.6761 34.9661 68.6774 35.416V40.9619C68.6769 41.4124 68.4977 41.8444 68.1791 42.163C67.8606 42.4815 67.4286 42.6607 66.9781 42.6612H61.4315Z" fill="#2F9E40" stroke="#2F9E40"/>
<path d="M37.542 70.3158C37.0915 70.3153 36.6596 70.1361 36.341 69.8176C36.0224 69.499 35.8432 69.0671 35.8428 68.6165V63.0706C35.8432 62.6201 36.0224 62.1881 36.341 61.8696C36.6596 61.551 37.0915 61.3718 37.542 61.3713H43.088C43.3115 61.3707 43.533 61.4142 43.7397 61.4993C43.9464 61.5845 44.1343 61.7095 44.2926 61.8674C44.4509 62.0252 44.5765 62.2128 44.6621 62.4192C44.7478 62.6257 44.7919 62.8471 44.7919 63.0706C44.7919 63.2942 44.7478 63.5155 44.6621 63.722C44.5765 63.9285 44.4509 64.116 44.2926 64.2738C44.1343 64.4317 43.9464 64.5568 43.7397 64.6419C43.533 64.727 43.3115 64.7705 43.088 64.7699H39.2413V68.6165C39.2408 69.0671 39.0617 69.499 38.7431 69.8176C38.4245 70.1361 37.9926 70.3153 37.542 70.3158Z" fill="#2F9E40" stroke="#2F9E40"/>
</svg>
