<svg width="39" height="39" viewBox="0 0 39 39" fill="none" xmlns="http://www.w3.org/2000/svg">
<path opacity="0.1" fill-rule="evenodd" clip-rule="evenodd" d="M0.324951 19.7779C0.324951 9.19332 8.90548 0.612793 19.4901 0.612793C30.0747 0.612793 38.6552 9.19332 38.6552 19.7779C38.6552 30.3626 30.0747 38.9431 19.4901 38.9431C8.90548 38.9431 0.324951 30.3626 0.324951 19.7779Z" fill="black"/>
<path fill-rule="evenodd" clip-rule="evenodd" d="M18.916 16.1904L18.9563 16.8536L18.286 16.7724C15.8462 16.4611 13.7147 15.4054 11.9049 13.6325L11.0201 12.7528L10.7922 13.4024C10.3096 14.8506 10.618 16.3799 11.6234 17.4084C12.1596 17.9769 12.039 18.0581 11.114 17.7197C10.7922 17.6115 10.5107 17.5302 10.4839 17.5708C10.3901 17.6656 10.7118 18.8972 10.9665 19.3844C11.3151 20.0611 12.0256 20.7242 12.8031 21.1167L13.46 21.428L12.6824 21.4415C11.9317 21.4415 11.9049 21.4551 11.9853 21.7393C12.2535 22.619 13.3125 23.5528 14.4922 23.9588L15.3233 24.243L14.5994 24.6761C13.527 25.2987 12.2669 25.6505 11.0067 25.6776C10.4035 25.6911 9.90747 25.7453 9.90747 25.7859C9.90747 25.9212 11.543 26.6791 12.4948 26.9769C15.3502 27.8566 18.7418 27.4776 21.2888 25.9754C23.0986 24.9062 24.9084 22.7814 25.7529 20.7242C26.2087 19.628 26.6645 17.625 26.6645 16.6641C26.6645 16.0415 26.7047 15.9603 27.4554 15.216C27.8978 14.7829 28.3134 14.3092 28.3938 14.1739C28.5279 13.9167 28.5145 13.9167 27.8308 14.1468C26.6913 14.5528 26.5304 14.4987 27.0935 13.8896C27.5091 13.4566 28.0051 12.6716 28.0051 12.4415C28.0051 12.4009 27.804 12.4686 27.5761 12.5904C27.3348 12.7257 26.7986 12.9287 26.3964 13.0506L25.6725 13.2806L25.0156 12.834C24.6537 12.5904 24.1442 12.3197 23.8761 12.2385C23.1924 12.049 22.1468 12.0761 21.5301 12.2927C19.8544 12.9017 18.7954 14.4716 18.916 16.1904Z" fill="white"/>
</svg>
