<svg width="40" height="39" viewBox="0 0 40 39" fill="none" xmlns="http://www.w3.org/2000/svg">
<path opacity="0.1" fill-rule="evenodd" clip-rule="evenodd" d="M0.820557 19.7779C0.820557 9.19332 9.40108 0.612793 19.9857 0.612793C30.5703 0.612793 39.1508 9.19332 39.1508 19.7779C39.1508 30.3626 30.5703 38.9431 19.9857 38.9431C9.40108 38.9431 0.820557 30.3626 0.820557 19.7779Z" fill="black"/>
<path fill-rule="evenodd" clip-rule="evenodd" d="M27.9726 13.1892C28.8522 13.4305 29.5449 14.1417 29.78 15.0449C30.2072 16.6818 30.2072 20.0971 30.2072 20.0971C30.2072 20.0971 30.2072 23.5124 29.78 25.1494C29.5449 26.0525 28.8522 26.7637 27.9726 27.0052C26.3785 27.4438 19.9858 27.4438 19.9858 27.4438C19.9858 27.4438 13.5931 27.4438 11.9989 27.0052C11.1193 26.7637 10.4266 26.0525 10.1915 25.1494C9.7644 23.5124 9.7644 20.0971 9.7644 20.0971C9.7644 20.0971 9.7644 16.6818 10.1915 15.0449C10.4266 14.1417 11.1193 13.4305 11.9989 13.1892C13.5931 12.7505 19.9858 12.7505 19.9858 12.7505C19.9858 12.7505 26.3785 12.7505 27.9726 13.1892ZM18.0693 17.2223V23.6107L23.18 20.4166L18.0693 17.2223Z" fill="white"/>
</svg>
